<?xml version="1.0" encoding="utf-8"?>
<svg viewBox="0 0 24 24" width="50px" height="50px" xmlns="http://www.w3.org/2000/svg">
  <path d="M 19.901 4.222 L 22.001 4.222 L 22.001 2 L 2.001 2 L 2.001 4.222 L 4.101 4.222 C 2.045 6.288 0.89 9.085 0.889 12 C 0.889 16.412 3.455 20.212 7.177 22 L 16.823 22 C 20.669 20.156 23.114 16.265 23.111 12 C 23.111 8.966 21.877 6.222 19.901 4.222 M 13.389 17.556 C 12.101 17.556 10.955 17.156 10.145 16.634 C 9.411 17.556 7.923 17.556 6.445 17.556 C 7.667 17.556 8.111 16.312 8.111 14.778 C 8.111 13.244 7.667 12 6.445 12 C 7.923 12 9.411 12 10.189 13.012 C 10.955 12.4 12.101 12 13.389 12 C 15.689 12 17.555 13.244 17.555 14.778 C 17.555 16.312 15.689 17.556 13.389 17.556 M 16.445 6.444 C 13.733 8.344 10.267 8.344 7.555 6.444 C 6.511 7.178 5.333 7.656 4.167 7.834 C 4.567 7.088 5.077 6.4 5.689 5.788 L 7.223 4.222 L 16.777 4.222 L 18.311 5.788 C 18.915 6.393 19.429 7.081 19.833 7.834 C 18.612 7.636 17.453 7.161 16.445 6.444" style="fill: rgb(78, 108, 250);" transform="matrix(1, 0, 0, 1, 0, 2.220446049250313e-16)"/>
</svg>