<?xml version="1.0" encoding="utf-8"?>
<svg width="50px" height="50px" viewBox="0 0 24 24" xmlns="http://www.w3.org/2000/svg">
  <path fill="currentColor" d="M 19.11 5 L 21 5 L 21 3 L 3 3 L 3 5 L 4.89 5 C 3.04 6.86 2.001 9.377 2 12 C 2 15.97 4.31 19.39 7.66 21 L 16.34 21 C 19.802 19.34 22.003 15.839 22 12 C 22 9.27 20.89 6.8 19.11 5 M 13.25 17 C 12.09 17 11.06 16.64 10.33 16.17 C 9.67 17 8.33 17 7 17 C 8.1 17 8.5 15.88 8.5 14.5 C 8.5 13.12 8.1 12 7 12 C 8.33 12 9.67 12 10.37 12.91 C 11.06 12.36 12.09 12 13.25 12 C 15.32 12 17 13.12 17 14.5 C 17 15.88 15.32 17 13.25 17 M 16 7 C 13.56 8.71 10.44 8.71 8 7 C 7.06 7.66 6 8.09 4.95 8.25 C 5.31 7.58 5.77 6.96 6.32 6.41 L 7.7 5 L 16.3 5 L 17.68 6.41 C 18.224 6.953 18.686 7.573 19.05 8.25 C 17.951 8.072 16.908 7.645 16 7"/>
</svg>