<?xml version="1.0" encoding="UTF-8" standalone="no" ?>
<!DOCTYPE svg PUBLIC "-//W3C//DTD SVG 1.1//EN" "http://www.w3.org/Graphics/SVG/1.1/DTD/svg11.dtd">
<svg xmlns="http://www.w3.org/2000/svg" xmlns:xlink="http://www.w3.org/1999/xlink" version="1.1" width="1080" height="1080" viewBox="0 0 1080 1080" xml:space="preserve">
<desc>Created with Fabric.js 5.2.4</desc>
<defs>
</defs>
<g transform="matrix(1 0 0 1 540 540)" id="e411d7fc-9990-425f-b7f2-cf5f63fbffdc"  >
<rect style="stroke: none; stroke-width: 1; stroke-dasharray: none; stroke-linecap: butt; stroke-dashoffset: 0; stroke-linejoin: miter; stroke-miterlimit: 4; fill: rgb(255,255,255); fill-rule: nonzero; opacity: 1; visibility: hidden;" vector-effect="non-scaling-stroke"  x="-540" y="-540" rx="0" ry="0" width="1080" height="1080" />
</g>
<g transform="matrix(1 0 0 1 540 540)" id="3282e42d-773f-4fc0-9810-ed9d592ed9fd"  >
</g>
<g transform="matrix(1 0 0 1 540 540)" id="490150d4-7f4a-4250-9a5a-52412bbb35d1"  >
<path style="stroke: rgb(63,109,181); stroke-width: 0; stroke-dasharray: none; stroke-linecap: butt; stroke-dashoffset: 0; stroke-linejoin: miter; stroke-miterlimit: 4; fill: rgb(63,109,181); fill-rule: nonzero; opacity: 1;" vector-effect="non-scaling-stroke"  transform=" translate(-12, -12)" d="M 19.11 5 L 21 5 L 21 3 L 3 3 L 3 5 L 4.89 5 C 3.0397967998785056 6.859953919407571 2.000817074196266 9.376513808603303 1.9999999999999991 12.000000000000004 C 2 15.97 4.3100000000000005 19.39 7.66 21 L 16.34 21 C 19.801782836557518 19.339589934218367 22.00302154383667 15.839387042785086 22 11.999999999999998 C 22 9.27 20.89 6.8 19.11 5 M 13.25 17 C 12.09 17 11.06 16.64 10.33 16.17 C 9.67 17 8.33 17 7 17 C 8.1 17 8.5 15.879999999999999 8.5 14.5 C 8.5 13.120000000000001 8.1 12 7 12 C 8.33 12 9.67 12 10.370000000000001 12.91 C 11.06 12.36 12.090000000000002 12 13.25 12 C 15.32 12 17 13.120000000000001 17 14.5 C 17 15.879999999999999 15.32 17 13.25 17 M 16 7 C 13.56 8.71 10.440000000000001 8.71 8 7 C 7.0600000000000005 7.66 6 8.09 4.95 8.25 C 5.3100000000000005 7.58 5.7700000000000005 6.96 6.32 6.41 L 7.7 5 L 16.3 5 L 17.68 6.41 C 18.224085092072134 6.953127497033656 18.68565407873907 7.573044968177568 19.05 8.25 C 17.951057979601956 8.072277449998449 16.907588189750825 7.644625896780772 16 7" stroke-linecap="round" />
</g>
<g transform="matrix(NaN NaN NaN NaN 0 0)"  >
<g style=""   >
</g>
</g>
<g transform="matrix(NaN NaN NaN NaN 0 0)"  >
<g style=""   >
</g>
</g>
</svg>